{
  "accessors": [
    {
      "bufferView": 2,
      "componentType": 5126,
      "count": 19693,
      "max": [
        26.521236419677734,
        16.623886108398438,
        21.72881317138672
      ],
      "min": [
        -26.521236419677734,
        -16.623886108398438,
        -21.72881317138672
      ],
      "type": "VEC3"
    },
    {
      "bufferView": 2,
      "byteOffset": 236316,
      "componentType": 5126,
      "count": 19693,
      "max": [
        0.9999763369560242,
        0.9998743534088135,
        0.9999133944511414
      ],
      "min": [
        -0.9999783039093018,
        -0.9998990893363953,
        -0.9999973773956299
      ],
      "type": "VEC3"
    },
    {
      "bufferView": 3,
      "componentType": 5126,
      "count": 19693,
      "max": [
        0.9998349547386169,
        0.9999581575393677,
        0.9999561309814453,
        1.0
      ],
      "min": [
        -0.9997134804725647,
        -0.9999317526817322,
        -0.9980809092521667,
        -1.0
      ],
      "type": "VEC4"
    },
    {
      "bufferView": 1,
      "componentType": 5126,
      "count": 19693,
      "max": [
        0.9410412907600403,
        0.8729189038276672
      ],
      "min": [
        0.00390625,
        0.00390625
      ],
      "type": "VEC2"
    },
    {
      "bufferView": 0,
      "componentType": 5125,
      "count": 115728,
      "type": "SCALAR"
    },
    {
      "bufferView": 2,
      "byteOffset": 472632,
      "componentType": 5126,
      "count": 53513,
      "max": [
        22.838287353515625,
        9.124290466308594,
        21.94636344909668
      ],
      "min": [
        -22.838287353515625,
        -9.124290466308594,
        -21.946361541748047
      ],
      "type": "VEC3"
    },
    {
      "bufferView": 2,
      "byteOffset": 1114788,
      "componentType": 5126,
      "count": 53513,
      "max": [
        0.9999954104423523,
        1.0,
        1.0
      ],
      "min": [
        -0.999973475933075,
        -1.0,
        -0.9998905062675476
      ],
      "type": "VEC3"
    },
    {
      "bufferView": 3,
      "byteOffset": 315088,
      "componentType": 5126,
      "count": 53513,
      "max": [
        0.9999231100082397,
        0.9998505115509033,
        0.9999866485595703,
        1.0
      ],
      "min": [
        -0.9999412894248962,
        -0.9999995231628418,
        -0.9999957084655762,
        -1.0
      ],
      "type": "VEC4"
    },
    {
      "bufferView": 1,
      "byteOffset": 157544,
      "componentType": 5126,
      "count": 53513,
      "max": [
        0.6756007075309753,
        0.9960938096046448
      ],
      "min": [
        0.38468119502067566,
        0.6714938879013062
      ],
      "type": "VEC2"
    },
    {
      "bufferView": 0,
      "byteOffset": 462912,
      "componentType": 5125,
      "count": 309216,
      "type": "SCALAR"
    }
  ],
  "asset": {
    "extras": {
      "author": "arloopa (https://sketchfab.com/arloopa)",
      "license": "SKETCHFAB Editorial (https://sketchfab.com/licenses)",
      "source": "https://sketchfab.com/3d-models/smokers-lungs-vs-non-smokers-lungs-0808cb4985234c9093221a7155d1fdec",
      "title": "Smoker's Lungs VS Non-smoker's lungs"
    },
    "generator": "Sketchfab-15.29.0",
    "version": "2.0"
  },
  "bufferViews": [
    {
      "buffer": 0,
      "byteLength": 1699776,
      "name": "floatBufferViews",
      "target": 34963
    },
    {
      "buffer": 0,
      "byteLength": 585648,
      "byteOffset": 1699776,
      "byteStride": 8,
      "name": "floatBufferViews",
      "target": 34962
    },
    {
      "buffer": 0,
      "byteLength": 1756944,
      "byteOffset": 2285424,
      "byteStride": 12,
      "name": "floatBufferViews",
      "target": 34962
    },
    {
      "buffer": 0,
      "byteLength": 1171296,
      "byteOffset": 4042368,
      "byteStride": 16,
      "name": "floatBufferViews",
      "target": 34962
    }
  ],
  "buffers": [
    {
      "byteLength": 5213664,
      "uri": "scene.bin"
    }
  ],
  "images": [
    {
      "uri": "textures/material_baseColor.png"
    },
    {
      "uri": "textures/material_normal.png"
    }
  ],
  "materials": [
    {
      "alphaMode": "BLEND",
      "doubleSided": true,
      "name": "material",
      "normalTexture": {
        "index": 1
      },
      "pbrMetallicRoughness": {
        "baseColorFactor": [
          1.0,
          1.0,
          1.0,
          0.4921919762041179
        ],
        "baseColorTexture": {
          "index": 0
        },
        "metallicFactor": 0.0,
        "roughnessFactor": 0.17523862929867975
      }
    },
    {
      "doubleSided": true,
      "name": "material_1",
      "normalTexture": {
        "index": 1
      },
      "pbrMetallicRoughness": {
        "baseColorTexture": {
          "index": 0
        },
        "metallicFactor": 0.0,
        "roughnessFactor": 0.0
      }
    }
  ],
  "meshes": [
    {
      "name": "lungs_1_0",
      "primitives": [
        {
          "attributes": {
            "NORMAL": 1,
            "POSITION": 0,
            "TANGENT": 2,
            "TEXCOORD_0": 3
          },
          "indices": 4,
          "material": 0,
          "mode": 4
        }
      ]
    },
    {
      "name": "Object001_2_0",
      "primitives": [
        {
          "attributes": {
            "NORMAL": 6,
            "POSITION": 5,
            "TANGENT": 7,
            "TEXCOORD_0": 8
          },
          "indices": 9,
          "material": 1,
          "mode": 4
        }
      ]
    }
  ],
  "nodes": [
    {
      "children": [
        1
      ],
      "matrix": [
        1.0,
        0.0,
        0.0,
        0.0,
        0.0,
        2.220446049250313e-16,
        -1.0,
        0.0,
        0.0,
        1.0,
        2.220446049250313e-16,
        0.0,
        0.0,
        0.0,
        0.0,
        1.0
      ],
      "name": "Sketchfab_model"
    },
    {
      "children": [
        2
      ],
      "matrix": [
        0.02539999969303608,
        0.0,
        0.0,
        0.0,
        0.0,
        0.0,
        0.02539999969303608,
        0.0,
        0.0,
        -0.02539999969303608,
        0.0,
        0.0,
        0.0,
        0.0,
        0.0,
        1.0
      ],
      "name": "4a7188dccab34507843994031268e749.fbx"
    },
    {
      "children": [
        3,
        5
      ],
      "name": "RootNode"
    },
    {
      "children": [
        4
      ],
      "matrix": [
        1.0,
        0.0,
        0.0,
        0.0,
        0.0,
        2.220446049250313e-16,
        -1.0,
        0.0,
        0.0,
        1.0,
        2.220446049250313e-16,
        0.0,
        0.0,
        -5.434450149536133,
        0.0,
        1.0
      ],
      "name": "lungs"
    },
    {
      "mesh": 0,
      "name": "lungs_1_0"
    },
    {
      "children": [
        6
      ],
      "matrix": [
        1.0,
        0.0,
        0.0,
        0.0,
        0.0,
        2.220446049250313e-16,
        -1.0,
        0.0,
        0.0,
        1.0,
        2.220446049250313e-16,
        0.0,
        -0.34502696990966797,
        5.216901779174805,
        -0.764312744140625,
        1.0
      ],
      "name": "Object001"
    },
    {
      "mesh": 1,
      "name": "Object001_2_0"
    }
  ],
  "samplers": [
    {
      "magFilter": 9729,
      "minFilter": 9987,
      "wrapS": 10497,
      "wrapT": 10497
    }
  ],
  "scene": 0,
  "scenes": [
    {
      "name": "Sketchfab_Scene",
      "nodes": [
        0
      ]
    }
  ],
  "textures": [
    {
      "sampler": 0,
      "source": 0
    },
    {
      "sampler": 0,
      "source": 1
    }
  ]
}
